<svg width="1924" height="624" viewBox="0 0 1924 624" fill="none" xmlns="http://www.w3.org/2000/svg">
<rect width="1924" height="624" fill="white"/>
<path d="M1664.91 367.094C1664.91 376 1662.8 383.539 1658.58 389.711C1654.44 395.805 1648.23 400.453 1639.95 403.656C1631.66 406.781 1621.35 408.344 1609.01 408.344C1599.87 408.344 1592.02 407.758 1585.45 406.586C1578.97 405.414 1572.41 403.461 1565.77 400.727V371.195C1572.87 374.398 1580.49 377.055 1588.62 379.164C1596.82 381.195 1604.01 382.211 1610.18 382.211C1617.13 382.211 1622.09 381.195 1625.06 379.164C1628.11 377.055 1629.63 374.32 1629.63 370.961C1629.63 368.773 1629.01 366.82 1627.76 365.102C1626.59 363.305 1624.01 361.313 1620.02 359.125C1616.04 356.859 1609.79 353.93 1601.27 350.336C1593.07 346.898 1586.31 343.422 1581 339.906C1575.77 336.391 1571.86 332.25 1569.28 327.484C1566.78 322.641 1565.53 316.508 1565.53 309.086C1565.53 296.977 1570.22 287.875 1579.59 281.781C1589.05 275.609 1601.66 272.523 1617.45 272.523C1625.57 272.523 1633.3 273.344 1640.65 274.984C1648.07 276.625 1655.69 279.242 1663.5 282.836L1652.72 308.617C1646.23 305.805 1640.1 303.5 1634.32 301.703C1628.62 299.906 1622.8 299.008 1616.86 299.008C1611.62 299.008 1607.68 299.711 1605.02 301.117C1602.37 302.523 1601.04 304.672 1601.04 307.563C1601.04 309.672 1601.7 311.547 1603.03 313.188C1604.44 314.828 1607.09 316.664 1611 318.695C1614.98 320.648 1620.8 323.188 1628.46 326.313C1635.88 329.359 1642.33 332.563 1647.8 335.922C1653.27 339.203 1657.48 343.305 1660.45 348.227C1663.42 353.07 1664.91 359.359 1664.91 367.094Z" fill="black"/>
<path d="M1497.73 272.523C1509.84 272.523 1520.27 274.867 1529.02 279.555C1537.77 284.164 1544.52 290.883 1549.29 299.711C1554.05 308.539 1556.44 319.32 1556.44 332.055V349.398H1471.95C1472.34 359.477 1475.34 367.406 1480.97 373.188C1486.67 378.891 1494.56 381.742 1504.64 381.742C1513 381.742 1520.66 380.883 1527.61 379.164C1534.56 377.445 1541.71 374.867 1549.05 371.43V399.086C1542.57 402.289 1535.77 404.633 1528.66 406.117C1521.63 407.602 1513.08 408.344 1503 408.344C1489.87 408.344 1478.23 405.922 1468.08 401.078C1458 396.234 1450.07 388.852 1444.29 378.93C1438.59 369.008 1435.73 356.508 1435.73 341.43C1435.73 326.117 1438.31 313.383 1443.47 303.227C1448.7 292.992 1455.97 285.336 1465.27 280.258C1474.56 275.102 1485.38 272.523 1497.73 272.523ZM1497.96 297.953C1491.01 297.953 1485.23 300.18 1480.62 304.633C1476.09 309.086 1473.47 316.078 1472.77 325.609H1522.92C1522.84 320.297 1521.87 315.57 1519.99 311.43C1518.2 307.289 1515.46 304.008 1511.79 301.586C1508.2 299.164 1503.59 297.953 1497.96 297.953Z" fill="black"/>
<path d="M1345.31 408.344C1330.7 408.344 1318.79 402.641 1309.57 391.234C1300.43 379.75 1295.86 362.914 1295.86 340.727C1295.86 318.305 1300.51 301.352 1309.8 289.867C1319.1 278.305 1331.25 272.523 1346.25 272.523C1352.5 272.523 1358.01 273.383 1362.77 275.102C1367.54 276.82 1371.64 279.125 1375.08 282.016C1378.59 284.906 1381.56 288.148 1383.98 291.742H1385.16C1384.69 289.242 1384.1 285.57 1383.4 280.727C1382.77 275.805 1382.46 270.766 1382.46 265.609V223.656H1418.32V406H1390.9L1383.98 389.008H1382.46C1380.2 392.602 1377.34 395.883 1373.91 398.852C1370.55 401.742 1366.52 404.047 1361.84 405.766C1357.15 407.484 1351.64 408.344 1345.31 408.344ZM1357.85 379.867C1367.62 379.867 1374.49 376.977 1378.48 371.195C1382.54 365.336 1384.69 356.547 1384.92 344.828V340.961C1384.92 328.227 1382.97 318.5 1379.06 311.781C1375.16 304.984 1367.89 301.586 1357.27 301.586C1349.37 301.586 1343.2 304.984 1338.75 311.781C1334.3 318.578 1332.07 328.383 1332.07 341.195C1332.07 354.008 1334.3 363.656 1338.75 370.141C1343.28 376.625 1349.65 379.867 1357.85 379.867Z" fill="black"/>
<path d="M1278.21 274.984V406H1242.47V274.984H1278.21ZM1260.4 223.656C1265.71 223.656 1270.28 224.906 1274.11 227.406C1277.94 229.828 1279.85 234.398 1279.85 241.117C1279.85 247.758 1277.94 252.367 1274.11 254.945C1270.28 257.445 1265.71 258.695 1260.4 258.695C1255.01 258.695 1250.4 257.445 1246.57 254.945C1242.82 252.367 1240.95 247.758 1240.95 241.117C1240.95 234.398 1242.82 229.828 1246.57 227.406C1250.4 224.906 1255.01 223.656 1260.4 223.656Z" fill="black"/>
<path d="M1216.85 406H1181.11V223.656H1216.85V406Z" fill="black"/>
<path d="M1164.87 358.422C1164.87 368.578 1162.41 377.406 1157.48 384.906C1152.56 392.406 1145.37 398.188 1135.92 402.25C1126.55 406.313 1115.14 408.344 1101.7 408.344C1095.77 408.344 1089.95 407.953 1084.24 407.172C1078.62 406.391 1073.19 405.258 1067.95 403.773C1062.8 402.211 1057.87 400.297 1053.19 398.031V364.281C1061.31 367.875 1069.75 371.117 1078.5 374.008C1087.25 376.898 1095.92 378.344 1104.52 378.344C1110.45 378.344 1115.22 377.563 1118.81 376C1122.48 374.438 1125.14 372.289 1126.78 369.555C1128.42 366.82 1129.24 363.695 1129.24 360.18C1129.24 355.883 1127.8 352.211 1124.91 349.164C1122.02 346.117 1118.03 343.266 1112.95 340.609C1107.95 337.953 1102.29 335.102 1095.96 332.055C1091.98 330.18 1087.64 327.914 1082.95 325.258C1078.27 322.523 1073.81 319.203 1069.59 315.297C1065.37 311.391 1061.9 306.664 1059.16 301.117C1056.51 295.492 1055.18 288.773 1055.18 280.961C1055.18 270.727 1057.52 261.977 1062.21 254.711C1066.9 247.445 1073.58 241.898 1082.25 238.07C1091 234.164 1101.31 232.211 1113.19 232.211C1122.09 232.211 1130.57 233.266 1138.62 235.375C1146.74 237.406 1155.22 240.375 1164.05 244.281L1152.33 272.523C1144.44 269.32 1137.37 266.859 1131.12 265.141C1124.87 263.344 1118.5 262.445 1112.02 262.445C1107.48 262.445 1103.62 263.188 1100.41 264.672C1097.21 266.078 1094.79 268.109 1093.15 270.766C1091.51 273.344 1090.69 276.352 1090.69 279.789C1090.69 283.852 1091.86 287.289 1094.2 290.102C1096.62 292.836 1100.22 295.492 1104.98 298.07C1109.83 300.648 1115.84 303.656 1123.03 307.094C1131.78 311.234 1139.24 315.57 1145.41 320.102C1151.66 324.555 1156.47 329.828 1159.83 335.922C1163.19 341.938 1164.87 349.438 1164.87 358.422Z" fill="black"/>
<path d="M970.852 223.656V315.648C970.852 321.352 970.773 327.172 970.617 333.109C970.539 338.969 970.422 344.828 970.266 350.688H970.5C972.766 348.031 975.109 345.258 977.531 342.367C980.031 339.398 982.492 336.547 984.914 333.813L1035.3 278.617H1049.6L999.328 333.227L1054.05 406H1039.87L991.242 341.078L970.852 362.523V406H959.016V223.656H970.852Z" fill="black"/>
<path d="M928.242 276.391C931.602 276.391 934.766 276.586 937.734 276.977C940.703 277.367 943.477 277.914 946.055 278.617L944.18 289.516C941.602 288.813 938.984 288.305 936.328 287.992C933.672 287.602 930.82 287.406 927.773 287.406C921.758 287.406 916.367 288.539 911.602 290.805C906.914 293.07 902.93 296.313 899.648 300.531C896.367 304.75 893.867 309.828 892.148 315.766C890.43 321.703 889.57 328.344 889.57 335.688V406H877.617V278.617H887.812L888.984 302.641H889.687C891.641 297.719 894.375 293.305 897.891 289.398C901.484 285.414 905.82 282.25 910.898 279.906C915.977 277.563 921.758 276.391 928.242 276.391Z" fill="black"/>
<path d="M806.766 276.391C820.75 276.391 831.219 279.906 838.172 286.938C845.125 293.969 848.602 305.18 848.602 320.57V406H839.461L837.352 383.734H836.648C833.914 388.5 830.594 392.758 826.687 396.508C822.781 400.18 817.977 403.07 812.273 405.18C806.648 407.289 799.773 408.344 791.648 408.344C783.445 408.344 776.414 406.977 770.555 404.242C764.773 401.508 760.281 397.523 757.078 392.289C753.953 387.055 752.391 380.688 752.391 373.188C752.391 360.531 757.625 350.922 768.094 344.359C778.562 337.719 793.602 333.969 813.211 333.109L836.883 331.938V322.68C836.883 309.633 834.305 300.336 829.148 294.789C823.992 289.242 816.375 286.469 806.297 286.469C799.734 286.469 793.406 287.328 787.312 289.047C781.297 290.688 775.164 293.07 768.914 296.195L765.164 286.352C771.258 283.461 777.781 281.078 784.734 279.203C791.766 277.328 799.109 276.391 806.766 276.391ZM836.766 341.195L814.5 342.133C798.328 342.914 786.023 345.805 777.586 350.805C769.148 355.805 764.93 363.305 764.93 373.305C764.93 381.352 767.43 387.523 772.43 391.82C777.508 396.117 784.539 398.266 793.523 398.266C807.508 398.266 818.172 394.281 825.516 386.313C832.937 378.344 836.687 367.484 836.766 353.734V341.195Z" fill="black"/>
<path d="M644.273 406L581.344 247.797H580.758C580.914 250.688 581.031 253.734 581.109 256.938C581.266 260.063 581.383 263.344 581.461 266.781C581.539 270.219 581.578 273.813 581.578 277.563V406H570.094V234.672H588.375L649.078 387.25H649.781L710.953 234.672H728.766V406H716.93V276.156C716.93 273.109 716.969 269.984 717.047 266.781C717.125 263.578 717.203 260.414 717.281 257.289C717.437 254.086 717.594 251 717.75 248.031H717.047L653.883 406H644.273Z" fill="black"/>
<mask id="mask0_1065_10743" style="mask-type:alpha" maskUnits="userSpaceOnUse" x="260" y="212" width="236" height="200">
<path d="M260 230.824C260 220.428 268.428 212 278.824 212H476.471C486.866 212 495.294 220.428 495.294 230.824V393.176C495.294 403.572 486.866 412 476.471 412H278.824C268.428 412 260 403.572 260 393.176V230.824Z" fill="#D9D9D9"/>
</mask>
<g mask="url(#mask0_1065_10743)">
<path d="M260 212H318.824V412H260V212Z" fill="#570080"/>
<path d="M318.824 212H260V223.765L377.647 370.824L411.765 328.078L318.824 212Z" fill="#8A00CC"/>
<path d="M436.471 212H495.294V412H436.471V212Z" fill="#7900B3"/>
<path d="M436.471 212H495.294V223.765L377.647 370.824L343.529 328.078L436.471 212Z" fill="#AD00FF"/>
</g>
</svg>
