<svg width="1924" height="624" viewBox="0 0 1924 624" fill="none" xmlns="http://www.w3.org/2000/svg">
<rect width="1924" height="624" fill="white"/>
<path d="M699.732 409V245.704H717.652L751.028 339.784C755.284 351.432 759.54 363.528 763.796 375.4H764.692C768.948 363.528 772.98 351.432 777.012 339.784L810.388 245.704H828.532V409H815.54V305.512C815.54 292.072 816.436 274.152 817.332 260.488H816.212L803.668 297L769.396 391.528H758.42L723.924 297L711.156 260.488H710.26C711.156 274.152 712.052 292.072 712.052 305.512V409H699.732ZM889.708 412.136C870.668 412.136 854.988 401.16 854.988 378.984C854.988 352.552 878.508 340.008 931.148 333.96C931.596 316.264 926.668 297.896 904.044 297.896C888.14 297.896 874.7 305.512 866.188 311.784L860.588 302.152C869.548 295.88 886.124 286.696 905.612 286.696C934.06 286.696 944.364 306.856 944.364 333.288V409H933.388L932.044 393.992H931.372C919.5 403.624 905.164 412.136 889.708 412.136ZM892.396 400.936C905.612 400.936 917.26 394.664 931.148 382.568V343.816C884.108 348.968 868.204 360.168 868.204 378.312C868.204 394.664 879.18 400.936 892.396 400.936ZM974.576 409V289.608H985.552L987.12 311.784H987.568C995.632 297 1007.5 286.696 1021.39 286.696C1026.1 286.696 1029.46 287.144 1033.49 289.16L1030.8 300.808C1026.77 299.24 1024.53 298.792 1019.6 298.792C1009.3 298.792 996.528 306.632 987.792 329.032V409H974.576ZM1043.88 409V231.144H1056.87V359.944H1057.54L1114.44 289.608H1129.44L1090.24 337.096L1135.49 409H1121.38L1082.63 346.504L1056.87 376.744V409H1043.88ZM1197.2 412.136C1174.8 412.136 1152.85 403.624 1136.72 388.168L1155.76 365.32C1167.41 376.296 1183.31 383.464 1197.87 383.464C1215.12 383.464 1224.08 376.072 1224.08 364.648C1224.08 352.328 1214 348.296 1199.22 342.024L1177.04 332.616C1160.46 325.896 1143.44 312.232 1143.44 288.264C1143.44 261.16 1167.41 240.328 1200.78 240.328C1220.05 240.328 1239.31 247.944 1252.75 261.608L1236.18 282.44C1225.42 273.704 1214.45 268.776 1200.78 268.776C1186.22 268.776 1177.04 275.272 1177.04 286.024C1177.04 297.896 1188.91 302.376 1203.02 307.976L1224.75 316.936C1244.69 325.224 1257.9 338.216 1257.9 361.96C1257.9 389.064 1235.28 412.136 1197.2 412.136ZM1304.5 412.136C1281.43 412.136 1273.59 397.128 1273.59 373.832V230.472H1306.52V375.176C1306.52 383.016 1309.88 385.48 1313.01 385.48C1314.13 385.48 1315.03 385.48 1317.27 385.032L1321.3 409.448C1317.49 410.792 1312.34 412.136 1304.5 412.136ZM1333.05 409V283.784H1365.97V409H1333.05ZM1349.4 263.4C1337.97 263.4 1330.36 256.232 1330.36 245.256C1330.36 234.504 1337.97 227.56 1349.4 227.56C1360.82 227.56 1368.66 234.504 1368.66 245.256C1368.66 256.232 1360.82 263.4 1349.4 263.4ZM1434.01 412.136C1402.65 412.136 1382.49 387.72 1382.49 346.504C1382.49 305.512 1408.25 280.648 1435.13 280.648C1449.24 280.648 1457.97 285.8 1467.16 294.088L1465.81 274.376V230.472H1498.74V409H1471.86L1469.4 396.008H1468.73C1459.54 405.192 1447 412.136 1434.01 412.136ZM1442.29 385.032C1451.25 385.032 1458.65 381.448 1465.81 372.264V317.16C1458.42 310.216 1450.36 307.528 1442.52 307.528C1428.41 307.528 1416.31 320.968 1416.31 346.056C1416.31 372.264 1425.94 385.032 1442.29 385.032ZM1577.49 412.136C1542.32 412.136 1514.99 387.944 1514.99 346.504C1514.99 305.736 1543.67 280.648 1573.23 280.648C1607.95 280.648 1625.65 305.736 1625.65 340.456C1625.65 346.728 1624.98 352.552 1624.31 355.688H1546.8C1549.71 376.296 1563.15 386.824 1581.75 386.824C1591.83 386.824 1600.79 383.688 1609.97 378.088L1620.95 398.472C1608.63 406.984 1592.95 412.136 1577.49 412.136ZM1546.35 333.736H1597.65C1597.65 316.712 1590.03 305.96 1573.91 305.96C1560.69 305.96 1549.04 315.368 1546.35 333.736ZM1677.63 412.136C1660.83 412.136 1642.24 404.968 1629.92 394.664L1644.7 373.832C1656.13 382.568 1666.65 387.72 1678.3 387.72C1690.85 387.72 1696.67 382.12 1696.67 374.28C1696.67 365.096 1683.45 360.616 1670.46 355.688C1654.56 349.416 1636.86 340.008 1636.86 318.728C1636.86 296.552 1654.78 280.648 1683.45 280.648C1701.6 280.648 1715.93 288.04 1726.24 296.104L1711.23 315.816C1702.49 309.544 1693.53 305.064 1684.35 305.064C1672.93 305.064 1667.77 309.992 1667.77 317.384C1667.77 326.344 1679.2 329.928 1692.64 334.632C1709.21 340.904 1727.36 349.416 1727.36 372.488C1727.36 394.664 1710.11 412.136 1677.63 412.136Z" fill="black"/>
<path d="M291 166H331.411L442.534 291.443L549.107 166L596.036 166V458H506.089V345.893L442.534 416.286L374.715 345.893V458H291V166Z" fill="#AD00FF"/>
<path d="M328.804 229.875L442.214 361.536L554.322 229.875V458H506.089V347.196L442.214 417.589L374.429 347.196V458H328.804V229.875Z" fill="#8600C6"/>
</svg>
