<svg width="1792" height="255" viewBox="0 0 1792 255" fill="none" xmlns="http://www.w3.org/2000/svg">
<path d="M1791.26 197.745C1791.26 209.1 1788.57 218.712 1783.19 226.581C1777.91 234.351 1769.99 240.278 1759.43 244.362C1748.87 248.346 1735.72 250.338 1719.98 250.338C1708.33 250.338 1698.32 249.591 1689.95 248.097C1681.69 246.603 1673.32 244.113 1664.85 240.626V202.974C1673.92 207.058 1683.63 210.445 1693.99 213.134C1704.45 215.724 1713.61 217.019 1721.48 217.019C1730.34 217.019 1736.67 215.724 1740.45 213.134C1744.34 210.445 1746.28 206.958 1746.28 202.675C1746.28 199.886 1745.48 197.396 1743.89 195.205C1742.4 192.914 1739.11 190.373 1734.03 187.584C1728.95 184.696 1720.98 180.96 1710.12 176.378C1699.66 171.996 1691.05 167.563 1684.28 163.08C1677.6 158.598 1672.62 153.319 1669.33 147.243C1666.15 141.067 1664.55 133.247 1664.55 123.785C1664.55 108.345 1670.53 96.7407 1682.48 88.9711C1694.53 81.102 1710.62 77.1674 1730.74 77.1674C1741.1 77.1674 1750.96 78.2133 1760.33 80.3051C1769.79 82.3969 1779.5 85.7338 1789.46 90.3159L1775.72 123.187C1767.45 119.601 1759.63 116.663 1752.26 114.372C1744.99 112.081 1737.57 110.935 1730 110.935C1723.32 110.935 1718.29 111.831 1714.9 113.624C1711.52 115.417 1709.82 118.157 1709.82 121.842C1709.82 124.532 1710.67 126.922 1712.36 129.014C1714.16 131.106 1717.54 133.447 1722.53 136.037C1727.61 138.527 1735.03 141.764 1744.79 145.748C1754.25 149.633 1762.47 153.717 1769.44 158C1776.41 162.184 1781.79 167.414 1785.58 173.689C1789.36 179.865 1791.26 187.883 1791.26 197.745Z" fill="black"/>
<path d="M1578.1 77.1674C1593.54 77.1674 1606.84 80.1557 1617.99 86.1323C1629.15 92.0092 1637.77 100.576 1643.84 111.831C1649.92 123.087 1652.96 136.833 1652.96 153.07V175.183H1545.23C1545.73 188.033 1549.56 198.143 1556.74 205.514C1564.01 212.786 1574.07 216.421 1586.92 216.421C1597.57 216.421 1607.34 215.326 1616.2 213.134C1625.07 210.943 1634.18 207.656 1643.54 203.273V238.535C1635.28 242.619 1626.61 245.607 1617.55 247.499C1608.58 249.392 1597.67 250.338 1584.82 250.338C1568.09 250.338 1553.25 247.25 1540.3 241.075C1527.45 234.899 1517.34 225.486 1509.97 212.835C1502.7 200.185 1499.06 184.247 1499.06 165.023C1499.06 145.499 1502.35 129.263 1508.92 116.314C1515.6 103.265 1524.86 93.5034 1536.71 87.0287C1548.57 80.4545 1562.36 77.1674 1578.1 77.1674ZM1578.4 109.59C1569.53 109.59 1562.16 112.429 1556.29 118.107C1550.51 123.785 1547.17 132.7 1546.28 144.852H1610.23C1610.13 138.079 1608.88 132.052 1606.49 126.773C1604.2 121.494 1600.71 117.31 1596.03 114.222C1591.45 111.134 1585.57 109.59 1578.4 109.59Z" fill="black"/>
<path d="M1383.77 250.338C1365.15 250.338 1349.96 243.067 1338.2 228.524C1326.55 213.881 1320.72 192.415 1320.72 164.126C1320.72 135.539 1326.65 113.923 1338.5 99.2807C1350.35 84.5385 1365.84 77.1674 1384.97 77.1674C1392.94 77.1674 1399.96 78.2631 1406.04 80.4545C1412.11 82.6459 1417.34 85.5844 1421.72 89.27C1426.21 92.9555 1429.99 97.0893 1433.08 101.671H1434.57C1433.98 98.4838 1433.23 93.8022 1432.33 87.6264C1431.54 81.351 1431.14 74.9262 1431.14 68.352V14.8618H1476.86V247.35H1441.9L1433.08 225.685H1431.14C1428.25 230.267 1424.61 234.451 1420.23 238.236C1415.95 241.921 1410.82 244.86 1404.84 247.051C1398.86 249.243 1391.84 250.338 1383.77 250.338ZM1399.76 214.031C1412.21 214.031 1420.98 210.345 1426.06 202.974C1431.24 195.503 1433.98 184.297 1434.28 169.356V164.425C1434.28 148.189 1431.79 135.788 1426.8 127.221C1421.82 118.555 1412.56 114.222 1399.01 114.222C1388.95 114.222 1381.08 118.555 1375.41 127.221C1369.73 135.887 1366.89 148.388 1366.89 164.724C1366.89 181.06 1369.73 193.362 1375.41 201.629C1381.18 209.897 1389.3 214.031 1399.76 214.031Z" fill="black"/>
<path d="M1298.22 80.3051V247.35H1252.65V80.3051H1298.22ZM1275.51 14.8618C1282.28 14.8618 1288.11 16.4555 1292.99 19.643C1297.87 22.7309 1300.31 28.558 1300.31 37.1245C1300.31 45.5912 1297.87 51.4682 1292.99 54.7553C1288.11 57.9428 1282.28 59.5366 1275.51 59.5366C1268.64 59.5366 1262.76 57.9428 1257.88 54.7553C1253.1 51.4682 1250.71 45.5912 1250.71 37.1245C1250.71 28.558 1253.1 22.7309 1257.88 19.643C1262.76 16.4555 1268.64 14.8618 1275.51 14.8618Z" fill="black"/>
<path d="M1219.99 247.35H1174.41V14.8618H1219.99V247.35Z" fill="black"/>
<path d="M1153.71 186.688C1153.71 199.637 1150.57 210.893 1144.29 220.456C1138.02 230.018 1128.85 237.389 1116.8 242.569C1104.85 247.748 1090.3 250.338 1073.17 250.338C1065.6 250.338 1058.18 249.84 1050.91 248.844C1043.74 247.848 1036.81 246.404 1030.14 244.511C1023.57 242.519 1017.29 240.079 1011.31 237.19V194.159C1021.67 198.741 1032.43 202.874 1043.59 206.56C1054.74 210.246 1065.8 212.088 1076.76 212.088C1084.33 212.088 1090.4 211.092 1094.99 209.1C1099.67 207.108 1103.05 204.369 1105.15 200.882C1107.24 197.396 1108.28 193.412 1108.28 188.929C1108.28 183.451 1106.44 178.769 1102.76 174.884C1099.07 170.999 1093.99 167.364 1087.52 163.977C1081.14 160.59 1073.92 156.955 1065.85 153.07C1060.77 150.679 1055.24 147.79 1049.27 144.404C1043.29 140.917 1037.61 136.684 1032.23 131.704C1026.85 126.723 1022.42 120.697 1018.93 113.624C1015.55 106.453 1013.85 97.8862 1013.85 87.9252C1013.85 74.8764 1016.84 63.7202 1022.82 54.4565C1028.8 45.1928 1037.31 38.1205 1048.37 33.2397C1059.53 28.2592 1072.67 25.769 1087.81 25.769C1099.17 25.769 1109.98 27.1137 1120.24 29.8032C1130.6 32.393 1141.4 36.1782 1152.66 41.1586L1137.72 77.1674C1127.66 73.0834 1118.64 69.9457 1110.67 67.7543C1102.71 65.4633 1094.59 64.3178 1086.32 64.3178C1080.54 64.3178 1075.61 65.2641 1071.53 67.1567C1067.44 68.9496 1064.36 71.5395 1062.26 74.9262C1060.17 78.2133 1059.13 82.0483 1059.13 86.4311C1059.13 91.6108 1060.62 95.9936 1063.61 99.5795C1066.7 103.066 1071.28 106.453 1077.36 109.74C1083.53 113.027 1091.2 116.862 1100.36 121.245C1111.52 126.524 1121.03 132.052 1128.9 137.83C1136.87 143.507 1143 150.231 1147.28 158C1151.56 165.67 1153.71 175.233 1153.71 186.688Z" fill="black"/>
<path d="M906.336 14.8618V132.152C906.336 139.423 906.236 146.844 906.037 154.414C905.937 161.885 905.788 169.356 905.589 176.827H905.887C908.776 173.44 911.764 169.904 914.852 166.218C918.04 162.433 921.177 158.797 924.265 155.311L988.513 84.9369H1006.74L942.643 154.564L1012.42 247.35H994.341L932.334 164.575L906.336 191.917V247.35H891.245V14.8618H906.336Z" fill="black"/>
<path d="M852.009 82.0981C856.292 82.0981 860.326 82.3471 864.111 82.8452C867.896 83.3432 871.433 84.0405 874.72 84.937L872.329 98.8325C869.042 97.936 865.705 97.2885 862.318 96.8901C858.932 96.392 855.296 96.143 851.411 96.143C843.741 96.143 836.868 97.5873 830.792 100.476C824.815 103.365 819.735 107.498 815.552 112.877C811.368 118.256 808.181 124.731 805.989 132.301C803.798 139.872 802.702 148.338 802.702 157.702V247.35H787.462V84.937H800.461L801.955 115.567H802.852C805.342 109.291 808.828 103.664 813.311 98.683C817.893 93.603 823.421 89.5688 829.896 86.5805C836.37 83.5922 843.741 82.0981 852.009 82.0981Z" fill="black"/>
<path d="M697.126 82.0981C714.956 82.0981 728.304 86.5805 737.169 95.5453C746.034 104.51 750.467 118.804 750.467 138.427V247.35H738.813L736.123 218.961H735.227C731.74 225.038 727.507 230.466 722.527 235.247C717.546 239.929 711.42 243.615 704.149 246.304C696.977 248.994 688.211 250.338 677.852 250.338C667.393 250.338 658.428 248.595 650.957 245.109C643.586 241.622 637.859 236.542 633.775 229.869C629.79 223.195 627.798 215.077 627.798 205.514C627.798 189.377 634.472 177.125 647.82 168.758C661.167 160.291 680.342 155.51 705.344 154.414L735.526 152.92V141.117C735.526 124.482 732.239 112.628 725.664 105.556C719.09 98.4838 709.378 94.9477 696.529 94.9477C688.161 94.9477 680.093 96.0434 672.323 98.2348C664.654 100.327 656.834 103.365 648.865 107.349L644.084 94.7983C651.854 91.1127 660.171 88.0746 669.036 85.684C678.001 83.2934 687.365 82.0981 697.126 82.0981ZM735.376 164.724L706.988 165.919C686.368 166.915 670.68 170.601 659.922 176.976C649.164 183.351 643.785 192.914 643.785 205.664C643.785 215.923 646.973 223.792 653.348 229.271C659.823 234.749 668.787 237.489 680.242 237.489C698.073 237.489 711.669 232.409 721.032 222.248C730.495 212.088 735.277 198.243 735.376 180.711V164.724Z" fill="black"/>
<path d="M489.949 247.35L409.713 45.6411H408.966C409.166 49.3266 409.315 53.2114 409.415 57.2953C409.614 61.2797 409.763 65.4633 409.863 69.8461C409.962 74.2289 410.012 78.811 410.012 83.5922V247.35H395.37V28.9067H418.678L496.075 223.444H496.971L574.965 28.9067H597.676V247.35H582.585V81.7993C582.585 77.9145 582.635 73.9301 582.735 69.8461C582.834 65.7621 582.934 61.728 583.034 57.7436C583.233 53.6596 583.432 49.725 583.631 45.9399H582.735L502.201 247.35H489.949Z" fill="black"/>
<mask id="mask0_1065_10870" style="mask-type:alpha" maskUnits="userSpaceOnUse" x="0" y="0" width="300" height="255">
<path d="M0 24C0 10.7452 10.7452 0 24 0H276C289.255 0 300 10.7452 300 24V231C300 244.255 289.255 255 276 255H24C10.7452 255 0 244.255 0 231V24Z" fill="#D9D9D9"/>
</mask>
<g mask="url(#mask0_1065_10870)">
<path d="M0 0H75V255H0V0Z" fill="#570080"/>
<path d="M75 0H0V15L150 202.5L193.5 148L75 0Z" fill="#8A00CC"/>
<path d="M225 0H300V255H225V0Z" fill="#7900B3"/>
<path d="M225 0H300V15L150 202.5L106.5 148L225 0Z" fill="#AD00FF"/>
</g>
</svg>
