<svg width="1444" height="357" viewBox="0 0 1444 357" fill="none" xmlns="http://www.w3.org/2000/svg">
<path d="M408.732 276V112.704H426.652L460.028 206.784C464.284 218.432 468.54 230.528 472.796 242.4H473.692C477.948 230.528 481.98 218.432 486.012 206.784L519.388 112.704H537.532V276H524.54V172.512C524.54 159.072 525.436 141.152 526.332 127.488H525.212L512.668 164L478.396 258.528H467.42L432.924 164L420.156 127.488H419.26C420.156 141.152 421.052 159.072 421.052 172.512V276H408.732ZM598.708 279.136C579.668 279.136 563.988 268.16 563.988 245.984C563.988 219.552 587.508 207.008 640.148 200.96C640.596 183.264 635.668 164.896 613.044 164.896C597.14 164.896 583.7 172.512 575.188 178.784L569.588 169.152C578.548 162.88 595.124 153.696 614.612 153.696C643.06 153.696 653.364 173.856 653.364 200.288V276H642.388L641.044 260.992H640.372C628.5 270.624 614.164 279.136 598.708 279.136ZM601.396 267.936C614.612 267.936 626.26 261.664 640.148 249.568V210.816C593.108 215.968 577.204 227.168 577.204 245.312C577.204 261.664 588.18 267.936 601.396 267.936ZM683.576 276V156.608H694.552L696.12 178.784H696.568C704.632 164 716.504 153.696 730.392 153.696C735.096 153.696 738.456 154.144 742.488 156.16L739.8 167.808C735.768 166.24 733.528 165.792 728.6 165.792C718.296 165.792 705.528 173.632 696.792 196.032V276H683.576ZM752.876 276V98.144H765.868V226.944H766.54L823.436 156.608H838.444L799.244 204.096L844.492 276H830.38L791.628 213.504L765.868 243.744V276H752.876ZM906.201 279.136C883.801 279.136 861.849 270.624 845.721 255.168L864.761 232.32C876.409 243.296 892.313 250.464 906.873 250.464C924.121 250.464 933.081 243.072 933.081 231.648C933.081 219.328 923.001 215.296 908.217 209.024L886.041 199.616C869.465 192.896 852.441 179.232 852.441 155.264C852.441 128.16 876.409 107.328 909.785 107.328C929.049 107.328 948.313 114.944 961.753 128.608L945.177 149.44C934.425 140.704 923.449 135.776 909.785 135.776C895.225 135.776 886.041 142.272 886.041 153.024C886.041 164.896 897.913 169.376 912.025 174.976L933.753 183.936C953.689 192.224 966.905 205.216 966.905 228.96C966.905 256.064 944.281 279.136 906.201 279.136ZM1013.5 279.136C990.43 279.136 982.59 264.128 982.59 240.832V97.472H1015.52V242.176C1015.52 250.016 1018.88 252.48 1022.01 252.48C1023.13 252.48 1024.03 252.48 1026.27 252.032L1030.3 276.448C1026.49 277.792 1021.34 279.136 1013.5 279.136ZM1042.05 276V150.784H1074.97V276H1042.05ZM1058.4 130.4C1046.97 130.4 1039.36 123.232 1039.36 112.256C1039.36 101.504 1046.97 94.56 1058.4 94.56C1069.82 94.56 1077.66 101.504 1077.66 112.256C1077.66 123.232 1069.82 130.4 1058.4 130.4ZM1143.01 279.136C1111.65 279.136 1091.49 254.72 1091.49 213.504C1091.49 172.512 1117.25 147.648 1144.13 147.648C1158.24 147.648 1166.97 152.8 1176.16 161.088L1174.81 141.376V97.472H1207.74V276H1180.86L1178.4 263.008H1177.73C1168.54 272.192 1156 279.136 1143.01 279.136ZM1151.29 252.032C1160.25 252.032 1167.65 248.448 1174.81 239.264V184.16C1167.42 177.216 1159.36 174.528 1151.52 174.528C1137.41 174.528 1125.31 187.968 1125.31 213.056C1125.31 239.264 1134.94 252.032 1151.29 252.032ZM1286.49 279.136C1251.32 279.136 1223.99 254.944 1223.99 213.504C1223.99 172.736 1252.67 147.648 1282.23 147.648C1316.95 147.648 1334.65 172.736 1334.65 207.456C1334.65 213.728 1333.98 219.552 1333.31 222.688H1255.8C1258.71 243.296 1272.15 253.824 1290.75 253.824C1300.83 253.824 1309.79 250.688 1318.97 245.088L1329.95 265.472C1317.63 273.984 1301.95 279.136 1286.49 279.136ZM1255.35 200.736H1306.65C1306.65 183.712 1299.03 172.96 1282.91 172.96C1269.69 172.96 1258.04 182.368 1255.35 200.736ZM1386.63 279.136C1369.83 279.136 1351.24 271.968 1338.92 261.664L1353.7 240.832C1365.13 249.568 1375.65 254.72 1387.3 254.72C1399.85 254.72 1405.67 249.12 1405.67 241.28C1405.67 232.096 1392.45 227.616 1379.46 222.688C1363.56 216.416 1345.86 207.008 1345.86 185.728C1345.86 163.552 1363.78 147.648 1392.45 147.648C1410.6 147.648 1424.93 155.04 1435.24 163.104L1420.23 182.816C1411.49 176.544 1402.53 172.064 1393.35 172.064C1381.93 172.064 1376.77 176.992 1376.77 184.384C1376.77 193.344 1388.2 196.928 1401.64 201.632C1418.21 207.904 1436.36 216.416 1436.36 239.488C1436.36 261.664 1419.11 279.136 1386.63 279.136Z" fill="black"/>
<path d="M0 33H40.4107L151.534 158.443L258.107 33L305.036 33V325H215.089V212.893L151.534 283.286L83.7145 212.893V325H0V33Z" fill="#AD00FF"/>
<path d="M37.8035 96.875L151.214 228.536L263.321 96.875V325H215.089V214.196L151.214 284.589L83.4285 214.196V325H37.8035V96.875Z" fill="#8600C6"/>
</svg>
